<svg xmlns="http://www.w3.org/2000/svg" viewBox="0 0 220 220">
  <defs>
    <linearGradient id="purple-bg" x1="0" y1="0" x2="220" y2="220" gradientUnits="userSpaceOnUse">
      <stop stop-color="#6D61F0"/>
      <stop offset="1" stop-color="#4236C8"/>
    </linearGradient>
  </defs>
  <rect width="220" height="220" fill="url(#purple-bg)"/>
  <circle cx="110" cy="110" r="90" fill="#EEF0FA"/>
  <rect x="65" y="56" width="90" height="112" rx="12" fill="#FFFFFF" stroke="#D9D5EA" stroke-width="3"/>
  <rect x="90" y="44" width="40" height="18" rx="7" fill="#5B4FE9"/>
  <rect x="80" y="74" width="12" height="12" rx="3" fill="#2D6CDF"/>
  <rect x="100" y="74" width="12" height="12" rx="3" fill="#009874"/>
  <rect x="120" y="74" width="12" height="12" rx="3" fill="#FFB020"/>
  <rect x="140" y="74" width="12" height="12" rx="3" fill="#D6336C"/>
  <line x1="78" y1="100" x2="142" y2="100" stroke="#E4E1F0" stroke-width="4" stroke-linecap="round"/>
  <line x1="78" y1="112" x2="152" y2="112" stroke="#E4E1F0" stroke-width="4" stroke-linecap="round"/>
  <line x1="78" y1="124" x2="130" y2="124" stroke="#E4E1F0" stroke-width="4" stroke-linecap="round"/>
  <line x1="78" y1="136" x2="152" y2="136" stroke="#E4E1F0" stroke-width="4" stroke-linecap="round"/>
  <line x1="78" y1="148" x2="120" y2="148" stroke="#E4E1F0" stroke-width="4" stroke-linecap="round"/>
  <circle cx="60" cy="53" r="9" fill="#2D6CDF"/>
  <path d="M60 53C40 66 40 98 68 116" stroke="#2D6CDF" stroke-width="7" fill="none" stroke-linecap="round"/>
  <circle cx="150" cy="148" r="19" fill="#2D6CDF"/>
  <path d="M150 156s-6.5-4.1-8.7-8.1c-1.4-2.7-.3-5.9 2.4-6.7 1.8-.5 3.3.2 6.3 2.5 3-2.3 4.5-3 6.3-2.5 2.7.8 3.8 4 2.4 6.7-2.2 4-8.7 8.1-8.7 8.1z" fill="#FFFFFF"/>
  <path d="M68 116c22 14 52 22 82 32" stroke="#2D6CDF" stroke-width="7" fill="none" stroke-linecap="round"/>
  <circle cx="175" cy="63" r="4" fill="#D6336C" opacity=".7"/>
  <circle cx="45" cy="148" r="4" fill="#009874" opacity=".8"/>
</svg>
